<?xml version="1.0" standalone="no"?>
<!DOCTYPE svg PUBLIC "-//W3C//DTD SVG 20010904//EN"
 "http://www.w3.org/TR/2001/REC-SVG-20010904/DTD/svg10.dtd">
<svg version="1.0" xmlns="http://www.w3.org/2000/svg"
 width="225.000000pt" height="225.000000pt" viewBox="0 0 225.000000 225.000000"
 preserveAspectRatio="xMidYMid meet">
<metadata>
Created by potrace 1.14, written by Peter Selinger 2001-2017
</metadata>
<g transform="translate(0.000000,225.000000) scale(0.100000,-0.100000)"
fill="#000000" stroke="none">
<path d="M460 1744 c-131 -35 -250 -126 -298 -227 -21 -45 -22 -57 -22 -403
l0 -355 -32 3 c-29 3 -33 6 -30 28 1 14 14 49 28 77 16 33 24 65 22 85 -3 33
-4 32 -46 -39 -73 -120 -68 -186 13 -199 28 -4 45 -11 45 -20 0 -10 15 -14 55
-14 l55 0 0 38 c0 34 4 39 50 65 l50 28 0 -65 0 -66 55 0 55 0 0 45 c0 56 20
107 51 129 33 22 56 20 84 -9 22 -21 25 -33 25 -95 0 -63 2 -70 20 -70 19 0
20 7 20 120 0 105 2 120 18 129 23 12 451 12 474 0 10 -6 19 -5 23 0 6 10 266
14 298 5 9 -3 17 -12 17 -20 0 -13 5 -12 30 3 l30 17 0 114 c0 132 -14 170
-82 224 -85 67 -192 106 -342 123 -89 10 -95 22 -46 93 105 155 94 255 -26
237 -50 -7 -244 -101 -244 -118 0 -5 -17 17 -39 50 -59 92 -78 103 -175 102
-44 0 -106 -7 -136 -15z m650 -85 c0 -28 -23 -79 -64 -143 l-36 -56 -35 14
c-19 8 -55 18 -80 22 -46 6 -54 14 -75 68 -7 19 -6 24 4 20 7 -3 48 14 92 38
80 43 159 69 182 61 6 -3 12 -14 12 -24z m-507 -71 c12 -15 17 -38 17 -88 l0
-67 -52 -7 c-109 -13 -108 -13 -108 47 0 116 83 184 143 115z m-272 -38 c16
-9 19 -22 19 -89 l0 -79 -44 -11 c-25 -6 -47 -11 -50 -11 -3 0 -6 35 -6 77 0
65 3 80 22 100 24 26 31 27 59 13z m474 -320 c-54 -54 -65 -59 -65 -32 1 33
57 82 95 82 16 0 10 -10 -30 -50z m120 10 c13 -14 19 -42 23 -95 l5 -75 -107
0 c-99 0 -106 1 -106 20 0 17 144 169 161 170 3 0 14 -9 24 -20z m-326 -16
c17 -21 21 -41 21 -95 l0 -69 -65 -1 c-36 -1 -71 -2 -77 -3 -15 -1 -22 62 -14
110 15 76 94 110 135 58z m588 2 c25 -21 28 -32 31 -99 l4 -75 -68 5 c-96 6
-94 5 -94 65 0 62 16 98 50 115 35 18 45 16 77 -11z m-853 -22 c12 -11 16 -36
16 -95 0 -71 -2 -79 -19 -79 -10 0 -33 -3 -50 -6 l-31 -6 0 80 c0 75 2 82 26
101 32 25 38 26 58 5z m1072 8 c23 -15 34 -53 34 -121 0 -78 0 -78 -62 -60
l-38 10 0 77 c0 47 5 83 12 90 13 13 37 15 54 4z"/>
<path d="M690 795 c0 -63 3 -115 6 -115 3 0 30 20 59 44 30 24 75 57 99 73 42
26 45 31 46 71 l0 42 -45 0 -45 0 0 -70 c0 -56 -3 -70 -15 -70 -12 0 -15 14
-15 70 l0 70 -45 0 -45 0 0 -115z"/>
<path d="M925 803 c4 -60 9 -110 11 -112 2 -2 30 12 61 31 32 20 72 43 89 51
24 13 33 25 39 54 3 21 9 48 12 61 5 20 2 22 -40 22 -51 0 -52 -1 -63 -93 -10
-86 -24 -79 -24 12 l0 81 -46 0 -46 0 7 -107z"/>
<path d="M1186 883 c-2 -16 -8 -68 -11 -116 l-7 -89 41 24 c25 14 41 31 42 43
1 17 2 17 6 3 4 -16 7 -17 35 -2 26 14 29 20 24 46 -3 17 -6 50 -6 74 l0 44
-59 0 c-57 0 -60 -1 -65 -27z"/>
<path d="M1346 888 c-9 -43 -14 -119 -7 -116 3 2 34 16 69 32 62 29 63 30 60
65 l-3 36 -57 3 c-53 3 -58 1 -62 -20z"/>
<path d="M1537 890 c-14 -11 -28 -33 -32 -49 -7 -33 13 -88 39 -110 15 -13 20
-11 43 12 23 23 25 29 15 52 -6 14 -8 25 -3 25 5 0 11 -7 15 -15 3 -10 19 -15
46 -15 39 0 40 1 40 35 0 52 -36 85 -93 85 -29 0 -53 -7 -70 -20z"/>
<path d="M1759 881 c-27 -28 -29 -34 -29 -111 l0 -82 23 16 c12 9 32 21 44 28
16 8 23 21 25 52 4 54 22 53 26 -1 l3 -43 46 0 45 0 -4 62 c-4 51 -9 65 -32
85 -41 35 -108 32 -147 -6z"/>
<path d="M1993 886 c-24 -21 -28 -32 -31 -95 -6 -101 -2 -108 47 -75 35 22 40
32 43 67 3 45 21 53 26 12 2 -14 5 -25 8 -25 2 0 22 12 44 26 32 21 39 31 34
48 -18 65 -116 89 -171 42z"/>
<path d="M1367 749 l-99 -50 7 -62 c10 -95 11 -97 54 -97 l39 0 7 73 c12 137
23 151 24 35 l1 -108 51 0 c48 0 51 1 46 23 -3 12 -9 70 -13 130 -4 59 -9 107
-13 106 -3 0 -50 -23 -104 -50z"/>
<path d="M791 713 l-100 -78 -1 -47 0 -48 45 0 45 0 0 75 c0 60 3 75 15 75 12
0 15 -15 15 -75 l0 -75 45 0 45 0 0 125 c0 69 -2 125 -4 125 -2 0 -50 -35
-105 -77z"/>
<path d="M2118 753 c-23 -15 -38 -34 -38 -46 0 -15 -5 -18 -21 -14 -15 4 -34
-4 -60 -25 -36 -29 -39 -36 -39 -80 l0 -48 45 0 c45 0 45 0 45 35 0 24 5 35
15 35 10 0 15 -11 15 -35 0 -35 0 -35 45 -35 l45 0 0 120 c0 66 -3 120 -7 119
-5 0 -25 -12 -45 -26z"/>
<path d="M1062 724 c-30 -18 -41 -31 -38 -42 3 -9 10 -45 17 -79 l12 -63 43 0
c51 0 51 0 29 98 -8 37 -15 77 -17 89 l-3 23 -43 -26z"/>
<path d="M1605 720 l-29 -30 24 -25 c17 -18 21 -28 13 -36 -8 -8 -13 -5 -18
10 -5 17 -14 21 -52 21 l-46 0 6 -37 c9 -55 46 -83 108 -83 98 0 131 82 68
168 -17 23 -34 42 -38 42 -4 0 -20 -13 -36 -30z"/>
<path d="M1510 705 c0 -8 7 -15 16 -15 14 0 14 3 4 15 -7 8 -14 15 -16 15 -2
0 -4 -7 -4 -15z"/>
<path d="M1773 680 c-45 -33 -52 -55 -31 -93 19 -36 40 -46 94 -47 40 0 55 5
73 24 24 26 37 81 27 120 -6 22 -12 26 -46 26 -38 0 -40 -1 -40 -32 0 -40 -16
-71 -24 -48 -3 8 -7 30 -8 48 l-3 33 -42 -31z"/>
<path d="M958 666 c-36 -20 -38 -23 -38 -73 l0 -53 45 0 45 0 0 75 c0 41 -3
75 -7 74 -5 -1 -25 -11 -45 -23z"/>
<path d="M1203 664 c-41 -24 -43 -27 -43 -75 l0 -49 45 0 45 0 0 75 c0 41 -1
75 -2 75 -2 0 -22 -12 -45 -26z"/>
</g>
</svg>
